# 3ds Max Wavefront OBJ Exporter v0.97b - (c)2007 guruware
# File Created: 26.10.2015 18:47:28

mtllib soccerBall.mtl

#
# object Layer0_001
#

v  -4.6011 1.4296 -0.4836
v  -5.5420 2.8593 1.6296
v  -6.6044 5.1725 0.6730
v  -6.3201 5.1725 -2.0314
v  -5.0820 2.8593 -2.7463
v  1.0414 2.8593 -5.6819
v  -0.9619 1.4296 -4.5253
v  -3.2624 2.8593 -4.7671
v  -2.6809 5.1725 -6.0732
v  -0.0210 5.1725 -6.6386
v  -1.8612 12.6582 -0.1956
v  -2.0033 12.6582 1.1566
v  -0.7612 12.6582 1.7096
v  -1.7191 12.6582 -1.5478
v  -0.3891 12.6582 -1.8305
v  0.4809 12.6582 2.2627
v  0.9409 12.6582 -2.1132
v  1.3907 12.6582 1.2522
v  1.6207 12.6582 -0.9357
v  2.3005 12.6582 0.2418
v  5.7387 5.1725 3.3375
v  3.9191 5.1725 5.3584
v  2.4972 2.8593 5.2089
v  3.4381 1.4296 3.0957
v  5.4414 2.8593 1.9391
v  4.6011 11.2286 0.4836
v  5.0820 9.7989 2.7463
v  6.3201 7.4857 2.0314
v  6.6044 7.4857 -0.6730
v  5.5420 9.7989 -1.6296
v  -4.9475 7.4857 4.4264
v  -3.5257 9.7989 4.5759
v  -4.0066 11.2286 2.3132
v  -6.3072 7.4857 2.0714
v  -5.7257 9.7989 0.7654
v  -5.7387 7.4857 -3.3375
v  -5.4414 9.7989 -1.9391
v  -3.4381 11.2286 -3.0957
v  -2.4972 9.7989 -5.2089
v  -3.9191 7.4857 -5.3584
v  4.1823 9.7989 -3.9847
v  3.8850 7.4857 -5.3831
v  1.4008 7.4857 -6.4891
v  0.1627 9.7989 -5.7743
v  1.8817 11.2286 -4.2265
v  -1.0414 9.7989 5.6819
v  0.0210 7.4857 6.6386
v  2.6809 7.4857 6.0732
v  3.2624 9.7989 4.7671
v  0.9619 11.2286 4.5253
v  -4.1823 2.8593 3.9847
v  -1.8817 1.4296 4.2265
v  -0.1627 2.8593 5.7743
v  -3.8850 5.1725 5.3831
v  -1.4008 5.1725 6.4891
v  6.3072 5.1725 -2.0714
v  5.7257 2.8593 -0.7654
v  4.0066 1.4296 -2.3132
v  4.9475 5.1725 -4.4264
v  3.5257 2.8593 -4.5759
v  -1.6207 0.0000 0.9357
v  -2.3005 0.0000 -0.2418
v  -1.3907 0.0000 -1.2522
v  -0.9409 0.0000 2.1132
v  -0.4809 0.0000 -2.2627
v  0.3891 0.0000 1.8305
v  0.7612 0.0000 -1.7096
v  1.7191 0.0000 1.5478
v  1.8612 0.0000 0.1956
v  2.0033 0.0000 -1.1566
# 70 vertices

vn -0.6642 -0.7443 -0.0698
vn -0.8135 -0.5174 0.2655
vn -0.9821 -0.1504 0.1137
vn -0.9370 -0.1504 -0.3154
vn -0.7405 -0.5174 -0.4288
vn 0.1790 -0.5174 -0.8368
vn -0.1389 -0.7443 -0.6533
vn -0.5039 -0.5174 -0.6916
vn -0.4116 -0.1504 -0.8989
vn 0.0104 -0.1504 -0.9886
vn -0.3187 0.9473 -0.0335
vn -0.3179 0.9302 0.1835
vn -0.1303 0.9473 0.2927
vn -0.2728 0.9302 -0.2456
vn -0.0666 0.9473 -0.3134
vn 0.0763 0.9302 0.3590
vn 0.1493 0.9302 -0.3353
vn 0.2381 0.9473 0.2144
vn 0.2775 0.9473 -0.1602
vn 0.3650 0.9302 0.0384
vn 0.8613 -0.1504 0.4852
vn 0.5726 -0.1504 0.8059
vn 0.3470 -0.5174 0.7822
vn 0.4963 -0.7443 0.4469
vn 0.8142 -0.5174 0.2634
vn 0.6642 0.7443 0.0698
vn 0.7405 0.5174 0.4288
vn 0.9370 0.1504 0.3154
vn 0.9821 0.1504 -0.1137
vn 0.8135 0.5174 -0.2655
vn -0.7277 0.1504 0.6692
vn -0.5021 0.5174 0.6929
vn -0.5784 0.7443 0.3339
vn -0.9434 0.1504 0.2956
vn -0.8511 0.5174 0.0883
vn -0.8613 0.1504 -0.4852
vn -0.8142 0.5174 -0.2634
vn -0.4963 0.7443 -0.4469
vn -0.3470 0.5174 -0.7822
vn -0.5726 0.1504 -0.8059
vn 0.6367 0.5174 -0.5717
vn 0.5895 0.1504 -0.7936
vn 0.1953 0.1504 -0.9691
vn -0.0011 0.5174 -0.8557
vn 0.2716 0.7443 -0.6101
vn -0.1790 0.5174 0.8368
vn -0.0104 0.1504 0.9886
vn 0.4116 0.1504 0.8989
vn 0.5039 0.5174 0.6916
vn 0.1389 0.7443 0.6533
vn -0.6367 -0.5174 0.5717
vn -0.2716 -0.7443 0.6101
vn 0.0011 -0.5174 0.8557
vn -0.5895 -0.1504 0.7936
vn -0.1953 -0.1504 0.9691
vn 0.9434 -0.1504 -0.2956
vn 0.8511 -0.5174 -0.0883
vn 0.5784 -0.7443 -0.3339
vn 0.7277 -0.1504 -0.6692
vn 0.5021 -0.5174 -0.6930
vn -0.2775 -0.9473 0.1602
vn -0.3650 -0.9302 -0.0384
vn -0.2381 -0.9473 -0.2144
vn -0.1493 -0.9302 0.3353
vn -0.0763 -0.9302 -0.3590
vn 0.0666 -0.9473 0.3134
vn 0.1303 -0.9473 -0.2927
vn 0.2728 -0.9302 0.2456
vn 0.3187 -0.9473 0.0335
vn 0.3179 -0.9302 -0.1835
# 70 vertex normals

vt 0.0000 0.0000 0.0000
# 1 texture coords

g Layer0_001
usemtl Color_009
s off
f 1/1/1 2/1/2 3/1/3 4/1/4 
f 1/1/1 4/1/4 5/1/5 
f 6/1/6 7/1/7 8/1/8 9/1/9 
f 6/1/6 9/1/9 10/1/10 
f 11/1/11 12/1/12 13/1/13 14/1/14 
f 15/1/15 14/1/14 13/1/13 16/1/16 
f 17/1/17 15/1/15 16/1/16 18/1/18 
f 19/1/19 17/1/17 18/1/18 20/1/20 
f 21/1/21 22/1/22 23/1/23 24/1/24 
f 21/1/21 24/1/24 25/1/25 
f 26/1/26 27/1/27 28/1/28 29/1/29 
f 26/1/26 29/1/29 30/1/30 
f 31/1/31 32/1/32 33/1/33 34/1/34 
f 34/1/34 33/1/33 35/1/35 
f 36/1/36 37/1/37 38/1/38 39/1/39 
f 36/1/36 39/1/39 40/1/40 
f 41/1/41 42/1/42 43/1/43 44/1/44 
f 41/1/41 44/1/44 45/1/45 
f 46/1/46 47/1/47 48/1/48 49/1/49 
f 46/1/46 49/1/49 50/1/50 
f 51/1/51 52/1/52 53/1/53 54/1/54 
f 54/1/54 53/1/53 55/1/55 
f 56/1/56 57/1/57 58/1/58 59/1/59 
f 59/1/59 58/1/58 60/1/60 
f 61/1/61 62/1/62 63/1/63 64/1/64 
f 64/1/64 63/1/63 65/1/65 66/1/66 
f 66/1/66 65/1/65 67/1/67 68/1/68 
f 69/1/69 68/1/68 67/1/67 70/1/70 
usemtl skp_front_default
f 24/1/24 68/1/68 69/1/69 70/1/70 
f 24/1/24 70/1/70 58/1/58 25/1/25 
f 25/1/25 58/1/58 57/1/57 
f 53/1/53 52/1/52 64/1/64 66/1/66 
f 23/1/23 53/1/53 66/1/66 68/1/68 
f 23/1/23 68/1/68 24/1/24 
f 3/1/3 34/1/34 35/1/35 37/1/37 
f 4/1/4 3/1/3 37/1/37 36/1/36 
f 5/1/5 4/1/4 36/1/36 8/1/8 
f 8/1/8 36/1/36 40/1/40 9/1/9 
f 39/1/39 38/1/38 14/1/14 44/1/44 
f 44/1/44 14/1/14 15/1/15 17/1/17 
f 44/1/44 17/1/17 45/1/45 
f 10/1/10 9/1/9 40/1/40 43/1/43 
f 43/1/43 40/1/40 39/1/39 44/1/44 
f 51/1/51 54/1/54 31/1/31 34/1/34 
f 2/1/2 51/1/51 34/1/34 3/1/3 
f 53/1/53 23/1/23 22/1/22 55/1/55 
f 55/1/55 22/1/22 48/1/48 47/1/47 
f 45/1/45 17/1/17 19/1/19 20/1/20 
f 41/1/41 45/1/45 20/1/20 26/1/26 
f 41/1/41 26/1/26 30/1/30 
f 28/1/28 21/1/21 25/1/25 29/1/29 
f 29/1/29 25/1/25 57/1/57 56/1/56 
f 30/1/30 29/1/29 56/1/56 41/1/41 
f 41/1/41 56/1/56 59/1/59 42/1/42 
f 60/1/60 6/1/6 10/1/10 59/1/59 
f 42/1/42 59/1/59 10/1/10 43/1/43 
f 1/1/1 5/1/5 8/1/8 62/1/62 
f 62/1/62 8/1/8 7/1/7 63/1/63 
f 63/1/63 7/1/7 65/1/65 
f 37/1/37 35/1/35 33/1/33 38/1/38 
f 38/1/38 33/1/33 12/1/12 14/1/14 
f 14/1/14 12/1/12 11/1/11 
f 65/1/65 7/1/7 6/1/6 67/1/67 
f 70/1/70 67/1/67 6/1/6 60/1/60 
f 70/1/70 60/1/60 58/1/58 
f 31/1/31 54/1/54 55/1/55 47/1/47 
f 31/1/31 47/1/47 46/1/46 32/1/32 
f 12/1/12 33/1/33 32/1/32 46/1/46 
f 13/1/13 12/1/12 46/1/46 50/1/50 
f 13/1/13 50/1/50 16/1/16 
f 49/1/49 48/1/48 22/1/22 21/1/21 
f 27/1/27 49/1/49 21/1/21 28/1/28 
f 18/1/18 16/1/16 50/1/50 49/1/49 
f 20/1/20 18/1/18 49/1/49 26/1/26 
f 26/1/26 49/1/49 27/1/27 
usemtl Color_000
f 51/1/51 2/1/2 1/1/1 62/1/62 
f 52/1/52 51/1/51 62/1/62 61/1/61 
f 52/1/52 61/1/61 64/1/64 
# 58 polygons - 20 triangles

